<svg width="96" height="96" xmlns="http://www.w3.org/2000/svg" xmlns:xlink="http://www.w3.org/1999/xlink" overflow="hidden"><defs><clipPath id="clip0"><rect x="0" y="0" width="96" height="96"/></clipPath></defs><g clip-path="url(#clip0)"><path d="M80.522 28.977 82.1 37 84.138 37 82.1 26.625 30 36.982C29.945 36.993 29.946 37.001 30 37.001L40.161 37.001Z" fill="#4E68ED" fill-rule="nonzero" fill-opacity="1"/><path d="M68.655 18.107 71.668 25.64 73.668 25.24 69.768 15.49 17.208 36.982C17.182 36.993 17.184 37.001 17.208 37.001L22.442 37.001Z" fill="#4E68ED" fill-rule="nonzero" fill-opacity="1"/><path d="M92.012 40 4 40 4 80 92.012 80ZM90.012 78 6 78 6 42 90.012 42Z" fill="#4E68ED" fill-rule="nonzero" fill-opacity="1"/><path d="M48.006 69C51.983 69 55.206 64.971 55.206 60 55.206 55.029 51.982 51 48.006 51 44.03 51 40.806 55.029 40.806 60 40.806 64.971 44.029 69 48.006 69ZM48.006 53C50.874 53 53.206 56.14 53.206 60 53.206 63.86 50.873 67 48.006 67 45.139 67 42.806 63.86 42.806 60 42.806 56.14 45.139 53 48.006 53Z" fill="#4E68ED" fill-rule="nonzero" fill-opacity="1"/><path d="M21.918 63.859C24.0547 64.4518 26.2674 63.2002 26.8602 61.0635 27.0551 60.3609 27.0551 59.6185 26.86 58.916 26.4923 57.5676 25.4392 56.5141 24.091 56.146 21.9547 55.5517 19.7411 56.8017 19.1468 58.938 18.9508 59.6423 18.9509 60.3867 19.147 61.091 19.5153 62.4393 20.5693 63.4922 21.918 63.859ZM23 58C24.1046 58 25 58.8954 25 60 25 61.1046 24.1046 62 23 62 21.8954 62 21 61.1046 21 60 21 58.8954 21.8954 58 23 58Z" fill="#4E68ED" fill-rule="nonzero" fill-opacity="1"/><path d="M73.826 63.921C75.7231 63.4789 77.0514 61.7685 77.01 59.821 77.036 58.5002 76.348 57.2679 75.21 56.597 73.3135 55.4101 70.8139 55.9853 69.6269 57.8818 69.2298 58.5163 69.0163 59.2485 69.01 59.997 69.0103 62.21 70.8045 64.0038 73.0175 64.0035 73.2891 64.0035 73.56 63.9758 73.826 63.921ZM73.01 58C74.1146 58 75.01 58.8954 75.01 60 75.01 61.1046 74.1146 62 73.01 62 71.9054 62 71.01 61.1046 71.01 60 71.01 58.8954 71.9054 58 73.01 58Z" fill="#4E68ED" fill-rule="nonzero" fill-opacity="1"/><path d="M83.011 74 86.011 71 86.011 49 83.011 46 14 46 10 50 10 70 14 74ZM12 50.83 14.83 48 82.183 48 84.011 49.828 84.011 70.174 82.183 72 14.83 72 12 69.174Z" fill="#4E68ED" fill-rule="nonzero" fill-opacity="1"/></g></svg>