<svg width="96" height="96" xmlns="http://www.w3.org/2000/svg" xmlns:xlink="http://www.w3.org/1999/xlink" overflow="hidden"><defs><clipPath id="clip0"><rect x="0" y="0" width="96" height="96"/></clipPath></defs><g clip-path="url(#clip0)"><path d="M48.005 29.428C35.405 4.428 14.005 19.428 14.005 33.428 14.005 38.976 16.39 44.871 19.883 50.546 22.0814 47.4582 23.7749 44.0406 24.9 40.421 27.8 49.682 33.969 56.985 41.791 60.421 38.4279 61.9229 35.3925 64.0705 32.857 66.742 37.599 71.6309 42.6594 76.2006 48.005 80.421 48.005 80.421 82 54.425 82 33.428 82 19.43 60.6 4.432 48.005 29.428ZM63.657 46.421C62.6758 42.9638 60.2541 40.0962 57.01 38.55 60.2539 37.004 62.6755 34.1368 63.657 30.68 64.6376 34.136 67.0576 37.0031 70.3 38.55 67.0574 40.0971 64.6373 42.9646 63.657 46.421Z" fill="#9e96ce" fill-rule="nonzero" fill-opacity="1"/><path d="M24.9 72.674C22.3435 67.7879 18.6527 63.5861 14.137 60.421 18.6525 57.2553 22.3433 53.0532 24.9 48.167 27.4567 53.0538 31.1483 57.256 35.665 60.421 31.1486 63.5859 27.457 67.7877 24.9 72.674Z" fill="#9e96ce" fill-rule="nonzero" fill-opacity="1"/></g></svg>